<?xml version="1.0" encoding="utf-8"?>
<!-- Generator: Adobe Illustrator 27.5.0, SVG Export Plug-In . SVG Version: 6.00 Build 0)  -->
<svg version="1.1" xmlns="http://www.w3.org/2000/svg" xmlns:xlink="http://www.w3.org/1999/xlink" x="0px" y="0px"
	 viewBox="0 0 500 500" style="enable-background:new 0 0 500 500;" xml:space="preserve">
<g id="BACKGROUND">
	<rect id="XMLID_232_" style="fill:#F7F7F7;" width="500" height="500"/>
</g>
<g id="OBJECTS">
	
		<radialGradient id="SVGID_1_" cx="250" cy="364.6665" r="88.327" gradientTransform="matrix(1 0 0 0.0897 0 292.6601)" gradientUnits="userSpaceOnUse">
		<stop  offset="5.800000e-07" style="stop-color:#606060"/>
		<stop  offset="0.9997" style="stop-color:#EAEDEE;stop-opacity:0"/>
	</radialGradient>
	<ellipse style="opacity:0.3;fill:url(#SVGID_1_);" cx="250" cy="325.368" rx="124.761" ry="10.991"/>
	<g>
		<g>
			<path style="fill:#003159;" d="M229.89,279.525c-0.494-1.595-1.249-3.063-2.211-4.364c-2.702-3.654-7.029-5.978-11.807-5.977
				c-0.466,0-0.938,0.022-1.412,0.067c-1.219,0.116-2.38,0.394-3.485,0.782c-1.579,0.555-3.029,1.36-4.299,2.377
				c-1.067,0.855-2.004,1.854-2.794,2.964c-1.978,2.779-3.014,6.247-2.665,9.909c0.725,7.61,7.128,13.31,14.62,13.31
				c0.466,0,0.938-0.022,1.412-0.067c7.729-0.736,13.472-7.333,13.29-14.975c-0.008-0.351-0.013-0.702-0.047-1.057
				C230.394,281.465,230.184,280.475,229.89,279.525z"/>
			<path style="fill:#003159;" d="M307.985,264.614c-1.085-0.885-2.292-1.618-3.594-2.166c-1.612-0.679-3.361-1.073-5.184-1.134
				c-0.165-0.006-0.327-0.023-0.493-0.023c-0.466,0-0.938,0.022-1.412,0.067c-4.923,0.469-9.036,3.321-11.334,7.3
				c-0.886,1.534-1.494,3.234-1.779,5.034c-0.19,1.198-0.25,2.434-0.13,3.698c0.015,0.159,0.047,0.311,0.067,0.469
				c0.94,7.372,7.217,12.842,14.553,12.842c0.466,0,0.938-0.022,1.412-0.067c8.084-0.77,14.013-7.948,13.243-16.032
				C312.947,270.527,310.923,267.012,307.985,264.614z"/>
			<path style="fill:#003159;" d="M175.766,189.285l-2.558-26.849c-1.24-13.018-12.233-22.8-25.055-22.8
				c-0.795,0-1.6,0.038-2.408,0.115l-24.048,2.291c-6.381,0.608-11.061,6.274-10.453,12.655c0.572,6.007,5.626,10.506,11.54,10.506
				c0.368,0,0.741-0.018,1.115-0.053l24.048-2.291c0.063-0.006,0.126-0.009,0.189-0.009c1.005,0,1.867,0.768,1.964,1.788
				l2.558,26.849c0.474,4.975,1.333,9.821,2.534,14.518c1.398-1.433,3.154-2.534,5.165-3.155l16.717-5.161
				C176.479,194.947,176.038,192.144,175.766,189.285z"/>
			<path style="fill:#003159;" d="M341.065,173.535l-1.326-13.911c-0.572-6.007-5.626-10.506-11.54-10.506
				c-0.369,0-0.74,0.018-1.115,0.053c-6.382,0.608-11.061,6.274-10.453,12.655l1.325,13.911c0.19,1.991,0.274,3.967,0.298,5.932
				c0.306,24.567-12.047,46.862-31.408,59.996c-9.588,6.505-20.887,10.766-33.213,11.941c-2.295,0.219-4.568,0.325-6.828,0.325
				c-8.998,0-17.676-1.704-25.699-4.822c-7.641-2.969-14.676-7.235-20.828-12.534l-1.964,5.643
				c-1.74,4.998-6.285,8.228-11.579,8.228c-5.09,0-9.572-3.066-11.419-7.812l-4.164-10.7l-7.061-3.574
				c8.905,16.008,22.281,29.053,38.278,37.611c3.275-2.474,7.165-4.023,11.354-4.422c0.711-0.068,1.433-0.102,2.147-0.102h0.001
				c9.826,0,18.182,6.253,21.203,15.181c3.201,0.332,6.439,0.516,9.713,0.516c2.991,0,6.01-0.142,9.047-0.431
				c7.206-0.687,14.136-2.195,20.736-4.378c0.634-3.871,2.258-7.527,4.823-10.632c3.817-4.622,9.206-7.48,15.173-8.048
				c0.711-0.068,1.433-0.102,2.147-0.102h0.001c3.046,0,5.946,0.613,8.598,1.707C330.527,235.913,344.141,205.821,341.065,173.535z"
				/>
		</g>
		<g>
			<path style="fill:#048ED6;" d="M310.009,173.903c-4.103-2.784-8.943-4.922-14.44-6.36c12.29-7.682,17.907-19.204,16.658-32.311
				c-2.036-21.374-21.664-35.171-60.58-31.463l-50.038,4.767c-14.014,1.335-24.293,13.779-22.957,27.793l5.378,56.443
				c0.143,0.878,0.305,1.751,0.484,2.618l10.567-3.263c1.19-0.367,2.416-0.554,3.644-0.554c3.94,0,7.669,1.936,9.974,5.179
				c2.322,3.267,2.895,7.318,1.573,11.116l-7.233,20.78c0.373,0.354,0.74,0.713,1.123,1.059
				c11.762,10.631,26.907,16.485,42.645,16.485c2.02,0,4.071-0.098,6.094-0.291c16.903-1.61,32.185-9.729,43.031-22.859
				c10.846-13.13,15.933-29.67,14.322-46.573L310.009,173.903z M226.184,139.768l22.18-2.113c10.686-1.018,15.871,2.15,16.525,9.006
				c0.653,6.856-3.841,10.946-14.527,11.964l-22.18,2.113L226.184,139.768z M261.926,211.647l-28.633,2.728l-2.113-22.181
				l28.633-2.728c10.484-0.999,16.092,2.333,16.784,9.592C277.288,206.317,272.41,210.648,261.926,211.647z"/>
			<path style="fill:#048ED6;" d="M198.725,198.575c-0.514,0-1.044,0.077-1.579,0.242l-34.724,10.721
				c-4.517,1.395-5.041,7.578-0.823,9.713l13.313,6.739c1.156,0.585,2.055,1.576,2.525,2.784l4.406,11.322
				c0.872,2.241,2.884,3.35,4.895,3.35c2.077,0,4.152-1.184,4.968-3.529l11.956-34.349
				C204.894,202.026,202.167,198.575,198.725,198.575z"/>
		</g>
	</g>
</g>
<g id="TEXTS">
	<text transform="matrix(1 0 0 1 120.052 383.8078)"><tspan x="0" y="0" style="fill:#003159; font-family:'Montserrat-ExtraBold'; font-size:46px;">Book</tspan><tspan x="128.568" y="0" style="fill:#048ED6; font-family:'Montserrat-ExtraBold'; font-size:46px;">Store</tspan></text>
	<text transform="matrix(1 0 0 1 197.8893 406.345)" style="fill:#048ED6; font-family:'OpenSans-BoldItalic'; font-size:20px;">Slogan Here</text>
</g>
</svg>
